<mxfile host="65bd71144e">
    <diagram name="Page-1" id="t_ZjzlIveFX3uH3_dq2D">
        <mxGraphModel dx="4503" dy="588" grid="0" gridSize="10" guides="1" tooltips="1" connect="1" arrows="1" fold="1" page="0" pageScale="1" pageWidth="1100" pageHeight="850" background="none" math="0" shadow="0" adaptiveColors="simple">
            <root>
                <mxCell id="0"/>
                <mxCell id="1" parent="0"/>
                <mxCell id="buDMk4SMQGIEA38cGcn8-2" value="users" style="shape=table;startSize=30;container=1;collapsible=1;childLayout=tableLayout;fixedRows=1;rowLines=0;fontStyle=1;align=center;resizeLast=1;html=1;" parent="1" vertex="1">
                    <mxGeometry x="-3993" y="307.5" width="180" height="210" as="geometry"/>
                </mxCell>
                <mxCell id="buDMk4SMQGIEA38cGcn8-3" value="" style="shape=tableRow;horizontal=0;startSize=0;swimlaneHead=0;swimlaneBody=0;fillColor=none;collapsible=0;dropTarget=0;points=[[0,0.5],[1,0.5]];portConstraint=eastwest;top=0;left=0;right=0;bottom=1;" parent="buDMk4SMQGIEA38cGcn8-2" vertex="1">
                    <mxGeometry y="30" width="180" height="30" as="geometry"/>
                </mxCell>
                <mxCell id="buDMk4SMQGIEA38cGcn8-4" value="PK" style="shape=partialRectangle;connectable=0;fillColor=none;top=0;left=0;bottom=0;right=0;fontStyle=1;overflow=hidden;whiteSpace=wrap;html=1;" parent="buDMk4SMQGIEA38cGcn8-3" vertex="1">
                    <mxGeometry width="41.3499755859375" height="30" as="geometry">
                        <mxRectangle width="41.3499755859375" height="30" as="alternateBounds"/>
                    </mxGeometry>
                </mxCell>
                <mxCell id="buDMk4SMQGIEA38cGcn8-5" value="id" style="shape=partialRectangle;connectable=0;fillColor=none;top=0;left=0;bottom=0;right=0;align=left;spacingLeft=6;fontStyle=5;overflow=hidden;whiteSpace=wrap;html=1;" parent="buDMk4SMQGIEA38cGcn8-3" vertex="1">
                    <mxGeometry x="41.3499755859375" width="138.6500244140625" height="30" as="geometry">
                        <mxRectangle width="138.6500244140625" height="30" as="alternateBounds"/>
                    </mxGeometry>
                </mxCell>
                <mxCell id="buDMk4SMQGIEA38cGcn8-6" value="" style="shape=tableRow;horizontal=0;startSize=0;swimlaneHead=0;swimlaneBody=0;fillColor=none;collapsible=0;dropTarget=0;points=[[0,0.5],[1,0.5]];portConstraint=eastwest;top=0;left=0;right=0;bottom=0;" parent="buDMk4SMQGIEA38cGcn8-2" vertex="1">
                    <mxGeometry y="60" width="180" height="30" as="geometry"/>
                </mxCell>
                <mxCell id="buDMk4SMQGIEA38cGcn8-7" value="UQ" style="shape=partialRectangle;connectable=0;fillColor=none;top=0;left=0;bottom=0;right=0;editable=1;overflow=hidden;whiteSpace=wrap;html=1;" parent="buDMk4SMQGIEA38cGcn8-6" vertex="1">
                    <mxGeometry width="41.3499755859375" height="30" as="geometry">
                        <mxRectangle width="41.3499755859375" height="30" as="alternateBounds"/>
                    </mxGeometry>
                </mxCell>
                <mxCell id="buDMk4SMQGIEA38cGcn8-8" value="email" style="shape=partialRectangle;connectable=0;fillColor=none;top=0;left=0;bottom=0;right=0;align=left;spacingLeft=6;overflow=hidden;whiteSpace=wrap;html=1;" parent="buDMk4SMQGIEA38cGcn8-6" vertex="1">
                    <mxGeometry x="41.3499755859375" width="138.6500244140625" height="30" as="geometry">
                        <mxRectangle width="138.6500244140625" height="30" as="alternateBounds"/>
                    </mxGeometry>
                </mxCell>
                <mxCell id="buDMk4SMQGIEA38cGcn8-9" value="" style="shape=tableRow;horizontal=0;startSize=0;swimlaneHead=0;swimlaneBody=0;fillColor=none;collapsible=0;dropTarget=0;points=[[0,0.5],[1,0.5]];portConstraint=eastwest;top=0;left=0;right=0;bottom=0;" parent="buDMk4SMQGIEA38cGcn8-2" vertex="1">
                    <mxGeometry y="90" width="180" height="30" as="geometry"/>
                </mxCell>
                <mxCell id="buDMk4SMQGIEA38cGcn8-10" value="" style="shape=partialRectangle;connectable=0;fillColor=none;top=0;left=0;bottom=0;right=0;editable=1;overflow=hidden;whiteSpace=wrap;html=1;" parent="buDMk4SMQGIEA38cGcn8-9" vertex="1">
                    <mxGeometry width="41.3499755859375" height="30" as="geometry">
                        <mxRectangle width="41.3499755859375" height="30" as="alternateBounds"/>
                    </mxGeometry>
                </mxCell>
                <mxCell id="buDMk4SMQGIEA38cGcn8-11" value="name" style="shape=partialRectangle;connectable=0;fillColor=none;top=0;left=0;bottom=0;right=0;align=left;spacingLeft=6;overflow=hidden;whiteSpace=wrap;html=1;" parent="buDMk4SMQGIEA38cGcn8-9" vertex="1">
                    <mxGeometry x="41.3499755859375" width="138.6500244140625" height="30" as="geometry">
                        <mxRectangle width="138.6500244140625" height="30" as="alternateBounds"/>
                    </mxGeometry>
                </mxCell>
                <mxCell id="ZmS3aK9wkaC02EFSY0Xw-1" value="" style="shape=tableRow;horizontal=0;startSize=0;swimlaneHead=0;swimlaneBody=0;fillColor=none;collapsible=0;dropTarget=0;points=[[0,0.5],[1,0.5]];portConstraint=eastwest;top=0;left=0;right=0;bottom=0;" parent="buDMk4SMQGIEA38cGcn8-2" vertex="1">
                    <mxGeometry y="120" width="180" height="30" as="geometry"/>
                </mxCell>
                <mxCell id="ZmS3aK9wkaC02EFSY0Xw-2" value="" style="shape=partialRectangle;connectable=0;fillColor=none;top=0;left=0;bottom=0;right=0;editable=1;overflow=hidden;whiteSpace=wrap;html=1;" parent="ZmS3aK9wkaC02EFSY0Xw-1" vertex="1">
                    <mxGeometry width="41.3499755859375" height="30" as="geometry">
                        <mxRectangle width="41.3499755859375" height="30" as="alternateBounds"/>
                    </mxGeometry>
                </mxCell>
                <mxCell id="ZmS3aK9wkaC02EFSY0Xw-3" value="last_name" style="shape=partialRectangle;connectable=0;fillColor=none;top=0;left=0;bottom=0;right=0;align=left;spacingLeft=6;overflow=hidden;whiteSpace=wrap;html=1;" parent="ZmS3aK9wkaC02EFSY0Xw-1" vertex="1">
                    <mxGeometry x="41.3499755859375" width="138.6500244140625" height="30" as="geometry">
                        <mxRectangle width="138.6500244140625" height="30" as="alternateBounds"/>
                    </mxGeometry>
                </mxCell>
                <mxCell id="buDMk4SMQGIEA38cGcn8-12" value="" style="shape=tableRow;horizontal=0;startSize=0;swimlaneHead=0;swimlaneBody=0;fillColor=none;collapsible=0;dropTarget=0;points=[[0,0.5],[1,0.5]];portConstraint=eastwest;top=0;left=0;right=0;bottom=0;" parent="buDMk4SMQGIEA38cGcn8-2" vertex="1">
                    <mxGeometry y="150" width="180" height="30" as="geometry"/>
                </mxCell>
                <mxCell id="buDMk4SMQGIEA38cGcn8-13" value="" style="shape=partialRectangle;connectable=0;fillColor=none;top=0;left=0;bottom=0;right=0;editable=1;overflow=hidden;whiteSpace=wrap;html=1;" parent="buDMk4SMQGIEA38cGcn8-12" vertex="1">
                    <mxGeometry width="41.3499755859375" height="30" as="geometry">
                        <mxRectangle width="41.3499755859375" height="30" as="alternateBounds"/>
                    </mxGeometry>
                </mxCell>
                <mxCell id="buDMk4SMQGIEA38cGcn8-14" value="password" style="shape=partialRectangle;connectable=0;fillColor=none;top=0;left=0;bottom=0;right=0;align=left;spacingLeft=6;overflow=hidden;whiteSpace=wrap;html=1;" parent="buDMk4SMQGIEA38cGcn8-12" vertex="1">
                    <mxGeometry x="41.3499755859375" width="138.6500244140625" height="30" as="geometry">
                        <mxRectangle width="138.6500244140625" height="30" as="alternateBounds"/>
                    </mxGeometry>
                </mxCell>
                <mxCell id="ZmS3aK9wkaC02EFSY0Xw-4" value="" style="shape=tableRow;horizontal=0;startSize=0;swimlaneHead=0;swimlaneBody=0;fillColor=none;collapsible=0;dropTarget=0;points=[[0,0.5],[1,0.5]];portConstraint=eastwest;top=0;left=0;right=0;bottom=0;" parent="buDMk4SMQGIEA38cGcn8-2" vertex="1">
                    <mxGeometry y="180" width="180" height="30" as="geometry"/>
                </mxCell>
                <mxCell id="ZmS3aK9wkaC02EFSY0Xw-5" value="ENUM" style="shape=partialRectangle;connectable=0;fillColor=none;top=0;left=0;bottom=0;right=0;editable=1;overflow=hidden;whiteSpace=wrap;html=1;" parent="ZmS3aK9wkaC02EFSY0Xw-4" vertex="1">
                    <mxGeometry width="41.3499755859375" height="30" as="geometry">
                        <mxRectangle width="41.3499755859375" height="30" as="alternateBounds"/>
                    </mxGeometry>
                </mxCell>
                <mxCell id="ZmS3aK9wkaC02EFSY0Xw-6" value="rol" style="shape=partialRectangle;connectable=0;fillColor=none;top=0;left=0;bottom=0;right=0;align=left;spacingLeft=6;overflow=hidden;whiteSpace=wrap;html=1;" parent="ZmS3aK9wkaC02EFSY0Xw-4" vertex="1">
                    <mxGeometry x="41.3499755859375" width="138.6500244140625" height="30" as="geometry">
                        <mxRectangle width="138.6500244140625" height="30" as="alternateBounds"/>
                    </mxGeometry>
                </mxCell>
                <mxCell id="buDMk4SMQGIEA38cGcn8-15" value="gyms" style="shape=table;startSize=30;container=1;collapsible=1;childLayout=tableLayout;fixedRows=1;rowLines=0;fontStyle=1;align=center;resizeLast=1;html=1;" parent="1" vertex="1">
                    <mxGeometry x="-3634" y="321.5" width="180.1788085937501" height="180" as="geometry"/>
                </mxCell>
                <mxCell id="buDMk4SMQGIEA38cGcn8-16" value="" style="shape=tableRow;horizontal=0;startSize=0;swimlaneHead=0;swimlaneBody=0;fillColor=none;collapsible=0;dropTarget=0;points=[[0,0.5],[1,0.5]];portConstraint=eastwest;top=0;left=0;right=0;bottom=1;" parent="buDMk4SMQGIEA38cGcn8-15" vertex="1">
                    <mxGeometry y="30" width="180.1788085937501" height="30" as="geometry"/>
                </mxCell>
                <mxCell id="buDMk4SMQGIEA38cGcn8-17" value="PK" style="shape=partialRectangle;connectable=0;fillColor=none;top=0;left=0;bottom=0;right=0;fontStyle=1;overflow=hidden;whiteSpace=wrap;html=1;" parent="buDMk4SMQGIEA38cGcn8-16" vertex="1">
                    <mxGeometry width="41.7366311961207" height="30" as="geometry">
                        <mxRectangle width="41.7366311961207" height="30" as="alternateBounds"/>
                    </mxGeometry>
                </mxCell>
                <mxCell id="buDMk4SMQGIEA38cGcn8-18" value="id" style="shape=partialRectangle;connectable=0;fillColor=none;top=0;left=0;bottom=0;right=0;align=left;spacingLeft=6;fontStyle=5;overflow=hidden;whiteSpace=wrap;html=1;" parent="buDMk4SMQGIEA38cGcn8-16" vertex="1">
                    <mxGeometry x="41.7366311961207" width="138.4421773976294" height="30" as="geometry">
                        <mxRectangle width="138.4421773976294" height="30" as="alternateBounds"/>
                    </mxGeometry>
                </mxCell>
                <mxCell id="buDMk4SMQGIEA38cGcn8-19" value="" style="shape=tableRow;horizontal=0;startSize=0;swimlaneHead=0;swimlaneBody=0;fillColor=none;collapsible=0;dropTarget=0;points=[[0,0.5],[1,0.5]];portConstraint=eastwest;top=0;left=0;right=0;bottom=0;" parent="buDMk4SMQGIEA38cGcn8-15" vertex="1">
                    <mxGeometry y="60" width="180.1788085937501" height="30" as="geometry"/>
                </mxCell>
                <mxCell id="buDMk4SMQGIEA38cGcn8-20" value="FK" style="shape=partialRectangle;connectable=0;fillColor=none;top=0;left=0;bottom=0;right=0;editable=1;overflow=hidden;whiteSpace=wrap;html=1;" parent="buDMk4SMQGIEA38cGcn8-19" vertex="1">
                    <mxGeometry width="41.7366311961207" height="30" as="geometry">
                        <mxRectangle width="41.7366311961207" height="30" as="alternateBounds"/>
                    </mxGeometry>
                </mxCell>
                <mxCell id="buDMk4SMQGIEA38cGcn8-21" value="user_id" style="shape=partialRectangle;connectable=0;fillColor=none;top=0;left=0;bottom=0;right=0;align=left;spacingLeft=6;overflow=hidden;whiteSpace=wrap;html=1;" parent="buDMk4SMQGIEA38cGcn8-19" vertex="1">
                    <mxGeometry x="41.7366311961207" width="138.4421773976294" height="30" as="geometry">
                        <mxRectangle width="138.4421773976294" height="30" as="alternateBounds"/>
                    </mxGeometry>
                </mxCell>
                <mxCell id="buDMk4SMQGIEA38cGcn8-29" value="" style="shape=tableRow;horizontal=0;startSize=0;swimlaneHead=0;swimlaneBody=0;fillColor=none;collapsible=0;dropTarget=0;points=[[0,0.5],[1,0.5]];portConstraint=eastwest;top=0;left=0;right=0;bottom=0;" parent="buDMk4SMQGIEA38cGcn8-15" vertex="1">
                    <mxGeometry y="90" width="180.1788085937501" height="30" as="geometry"/>
                </mxCell>
                <mxCell id="buDMk4SMQGIEA38cGcn8-30" value="NULL" style="shape=partialRectangle;connectable=0;fillColor=none;top=0;left=0;bottom=0;right=0;editable=1;overflow=hidden;whiteSpace=wrap;html=1;" parent="buDMk4SMQGIEA38cGcn8-29" vertex="1">
                    <mxGeometry width="41.7366311961207" height="30" as="geometry">
                        <mxRectangle width="41.7366311961207" height="30" as="alternateBounds"/>
                    </mxGeometry>
                </mxCell>
                <mxCell id="buDMk4SMQGIEA38cGcn8-31" value="name" style="shape=partialRectangle;connectable=0;fillColor=none;top=0;left=0;bottom=0;right=0;align=left;spacingLeft=6;overflow=hidden;whiteSpace=wrap;html=1;" parent="buDMk4SMQGIEA38cGcn8-29" vertex="1">
                    <mxGeometry x="41.7366311961207" width="138.4421773976294" height="30" as="geometry">
                        <mxRectangle width="138.4421773976294" height="30" as="alternateBounds"/>
                    </mxGeometry>
                </mxCell>
                <mxCell id="buDMk4SMQGIEA38cGcn8-22" value="" style="shape=tableRow;horizontal=0;startSize=0;swimlaneHead=0;swimlaneBody=0;fillColor=none;collapsible=0;dropTarget=0;points=[[0,0.5],[1,0.5]];portConstraint=eastwest;top=0;left=0;right=0;bottom=0;" parent="buDMk4SMQGIEA38cGcn8-15" vertex="1">
                    <mxGeometry y="120" width="180.1788085937501" height="30" as="geometry"/>
                </mxCell>
                <mxCell id="buDMk4SMQGIEA38cGcn8-23" value="NULL" style="shape=partialRectangle;connectable=0;fillColor=none;top=0;left=0;bottom=0;right=0;editable=1;overflow=hidden;whiteSpace=wrap;html=1;" parent="buDMk4SMQGIEA38cGcn8-22" vertex="1">
                    <mxGeometry width="41.7366311961207" height="30" as="geometry">
                        <mxRectangle width="41.7366311961207" height="30" as="alternateBounds"/>
                    </mxGeometry>
                </mxCell>
                <mxCell id="buDMk4SMQGIEA38cGcn8-24" value="address" style="shape=partialRectangle;connectable=0;fillColor=none;top=0;left=0;bottom=0;right=0;align=left;spacingLeft=6;overflow=hidden;whiteSpace=wrap;html=1;" parent="buDMk4SMQGIEA38cGcn8-22" vertex="1">
                    <mxGeometry x="41.7366311961207" width="138.4421773976294" height="30" as="geometry">
                        <mxRectangle width="138.4421773976294" height="30" as="alternateBounds"/>
                    </mxGeometry>
                </mxCell>
                <mxCell id="ZmS3aK9wkaC02EFSY0Xw-7" value="" style="shape=tableRow;horizontal=0;startSize=0;swimlaneHead=0;swimlaneBody=0;fillColor=none;collapsible=0;dropTarget=0;points=[[0,0.5],[1,0.5]];portConstraint=eastwest;top=0;left=0;right=0;bottom=0;" parent="buDMk4SMQGIEA38cGcn8-15" vertex="1">
                    <mxGeometry y="150" width="180.1788085937501" height="30" as="geometry"/>
                </mxCell>
                <mxCell id="ZmS3aK9wkaC02EFSY0Xw-8" value="NULL" style="shape=partialRectangle;connectable=0;fillColor=none;top=0;left=0;bottom=0;right=0;editable=1;overflow=hidden;whiteSpace=wrap;html=1;" parent="ZmS3aK9wkaC02EFSY0Xw-7" vertex="1">
                    <mxGeometry width="41.7366311961207" height="30" as="geometry">
                        <mxRectangle width="41.7366311961207" height="30" as="alternateBounds"/>
                    </mxGeometry>
                </mxCell>
                <mxCell id="ZmS3aK9wkaC02EFSY0Xw-9" value="phone" style="shape=partialRectangle;connectable=0;fillColor=none;top=0;left=0;bottom=0;right=0;align=left;spacingLeft=6;overflow=hidden;whiteSpace=wrap;html=1;" parent="ZmS3aK9wkaC02EFSY0Xw-7" vertex="1">
                    <mxGeometry x="41.7366311961207" width="138.4421773976294" height="30" as="geometry">
                        <mxRectangle width="138.4421773976294" height="30" as="alternateBounds"/>
                    </mxGeometry>
                </mxCell>
                <mxCell id="buDMk4SMQGIEA38cGcn8-28" value="" style="fontSize=12;html=1;endArrow=ERmandOne;startArrow=ERmandOne;rounded=0;entryX=0;entryY=0.5;entryDx=0;entryDy=0;exitX=1;exitY=0.5;exitDx=0;exitDy=0;edgeStyle=entityRelationEdgeStyle;elbow=vertical;" parent="1" source="buDMk4SMQGIEA38cGcn8-3" target="buDMk4SMQGIEA38cGcn8-19" edge="1">
                    <mxGeometry width="100" height="100" relative="1" as="geometry">
                        <mxPoint x="-4259" y="489.5" as="sourcePoint"/>
                        <mxPoint x="-4159" y="389.5" as="targetPoint"/>
                    </mxGeometry>
                </mxCell>
                <mxCell id="buDMk4SMQGIEA38cGcn8-103" value="Update: CASCADE&lt;div&gt;Delete: RESTRICT&lt;/div&gt;" style="text;html=1;align=center;verticalAlign=middle;resizable=0;points=[];autosize=1;strokeColor=none;fillColor=none;" parent="1" vertex="1">
                    <mxGeometry x="-3784" y="393" width="121" height="41" as="geometry"/>
                </mxCell>
                <mxCell id="ZmS3aK9wkaC02EFSY0Xw-10" value="members" style="shape=table;startSize=30;container=1;collapsible=1;childLayout=tableLayout;fixedRows=1;rowLines=0;fontStyle=1;align=center;resizeLast=1;html=1;" parent="1" vertex="1">
                    <mxGeometry x="-3252" y="292" width="180" height="210" as="geometry"/>
                </mxCell>
                <mxCell id="ZmS3aK9wkaC02EFSY0Xw-11" value="" style="shape=tableRow;horizontal=0;startSize=0;swimlaneHead=0;swimlaneBody=0;fillColor=none;collapsible=0;dropTarget=0;points=[[0,0.5],[1,0.5]];portConstraint=eastwest;top=0;left=0;right=0;bottom=1;" parent="ZmS3aK9wkaC02EFSY0Xw-10" vertex="1">
                    <mxGeometry y="30" width="180" height="30" as="geometry"/>
                </mxCell>
                <mxCell id="ZmS3aK9wkaC02EFSY0Xw-12" value="PK" style="shape=partialRectangle;connectable=0;fillColor=none;top=0;left=0;bottom=0;right=0;fontStyle=1;overflow=hidden;whiteSpace=wrap;html=1;" parent="ZmS3aK9wkaC02EFSY0Xw-11" vertex="1">
                    <mxGeometry width="64.1500244140625" height="30" as="geometry">
                        <mxRectangle width="64.1500244140625" height="30" as="alternateBounds"/>
                    </mxGeometry>
                </mxCell>
                <mxCell id="ZmS3aK9wkaC02EFSY0Xw-13" value="id" style="shape=partialRectangle;connectable=0;fillColor=none;top=0;left=0;bottom=0;right=0;align=left;spacingLeft=6;fontStyle=5;overflow=hidden;whiteSpace=wrap;html=1;" parent="ZmS3aK9wkaC02EFSY0Xw-11" vertex="1">
                    <mxGeometry x="64.1500244140625" width="115.8499755859375" height="30" as="geometry">
                        <mxRectangle width="115.8499755859375" height="30" as="alternateBounds"/>
                    </mxGeometry>
                </mxCell>
                <mxCell id="ZmS3aK9wkaC02EFSY0Xw-14" value="" style="shape=tableRow;horizontal=0;startSize=0;swimlaneHead=0;swimlaneBody=0;fillColor=none;collapsible=0;dropTarget=0;points=[[0,0.5],[1,0.5]];portConstraint=eastwest;top=0;left=0;right=0;bottom=0;" parent="ZmS3aK9wkaC02EFSY0Xw-10" vertex="1">
                    <mxGeometry y="60" width="180" height="30" as="geometry"/>
                </mxCell>
                <mxCell id="ZmS3aK9wkaC02EFSY0Xw-15" value="FK" style="shape=partialRectangle;connectable=0;fillColor=none;top=0;left=0;bottom=0;right=0;editable=1;overflow=hidden;whiteSpace=wrap;html=1;" parent="ZmS3aK9wkaC02EFSY0Xw-14" vertex="1">
                    <mxGeometry width="64.1500244140625" height="30" as="geometry">
                        <mxRectangle width="64.1500244140625" height="30" as="alternateBounds"/>
                    </mxGeometry>
                </mxCell>
                <mxCell id="ZmS3aK9wkaC02EFSY0Xw-16" value="gym_id" style="shape=partialRectangle;connectable=0;fillColor=none;top=0;left=0;bottom=0;right=0;align=left;spacingLeft=6;overflow=hidden;whiteSpace=wrap;html=1;" parent="ZmS3aK9wkaC02EFSY0Xw-14" vertex="1">
                    <mxGeometry x="64.1500244140625" width="115.8499755859375" height="30" as="geometry">
                        <mxRectangle width="115.8499755859375" height="30" as="alternateBounds"/>
                    </mxGeometry>
                </mxCell>
                <mxCell id="ZmS3aK9wkaC02EFSY0Xw-17" value="" style="shape=tableRow;horizontal=0;startSize=0;swimlaneHead=0;swimlaneBody=0;fillColor=none;collapsible=0;dropTarget=0;points=[[0,0.5],[1,0.5]];portConstraint=eastwest;top=0;left=0;right=0;bottom=0;" parent="ZmS3aK9wkaC02EFSY0Xw-10" vertex="1">
                    <mxGeometry y="90" width="180" height="30" as="geometry"/>
                </mxCell>
                <mxCell id="ZmS3aK9wkaC02EFSY0Xw-18" value="" style="shape=partialRectangle;connectable=0;fillColor=none;top=0;left=0;bottom=0;right=0;editable=1;overflow=hidden;whiteSpace=wrap;html=1;" parent="ZmS3aK9wkaC02EFSY0Xw-17" vertex="1">
                    <mxGeometry width="64.1500244140625" height="30" as="geometry">
                        <mxRectangle width="64.1500244140625" height="30" as="alternateBounds"/>
                    </mxGeometry>
                </mxCell>
                <mxCell id="ZmS3aK9wkaC02EFSY0Xw-19" value="name" style="shape=partialRectangle;connectable=0;fillColor=none;top=0;left=0;bottom=0;right=0;align=left;spacingLeft=6;overflow=hidden;whiteSpace=wrap;html=1;" parent="ZmS3aK9wkaC02EFSY0Xw-17" vertex="1">
                    <mxGeometry x="64.1500244140625" width="115.8499755859375" height="30" as="geometry">
                        <mxRectangle width="115.8499755859375" height="30" as="alternateBounds"/>
                    </mxGeometry>
                </mxCell>
                <mxCell id="ZmS3aK9wkaC02EFSY0Xw-23" value="" style="shape=tableRow;horizontal=0;startSize=0;swimlaneHead=0;swimlaneBody=0;fillColor=none;collapsible=0;dropTarget=0;points=[[0,0.5],[1,0.5]];portConstraint=eastwest;top=0;left=0;right=0;bottom=0;" parent="ZmS3aK9wkaC02EFSY0Xw-10" vertex="1">
                    <mxGeometry y="120" width="180" height="30" as="geometry"/>
                </mxCell>
                <mxCell id="ZmS3aK9wkaC02EFSY0Xw-24" value="ENUM" style="shape=partialRectangle;connectable=0;fillColor=none;top=0;left=0;bottom=0;right=0;editable=1;overflow=hidden;whiteSpace=wrap;html=1;" parent="ZmS3aK9wkaC02EFSY0Xw-23" vertex="1">
                    <mxGeometry width="64.1500244140625" height="30" as="geometry">
                        <mxRectangle width="64.1500244140625" height="30" as="alternateBounds"/>
                    </mxGeometry>
                </mxCell>
                <mxCell id="ZmS3aK9wkaC02EFSY0Xw-25" value="gender" style="shape=partialRectangle;connectable=0;fillColor=none;top=0;left=0;bottom=0;right=0;align=left;spacingLeft=6;overflow=hidden;whiteSpace=wrap;html=1;" parent="ZmS3aK9wkaC02EFSY0Xw-23" vertex="1">
                    <mxGeometry x="64.1500244140625" width="115.8499755859375" height="30" as="geometry">
                        <mxRectangle width="115.8499755859375" height="30" as="alternateBounds"/>
                    </mxGeometry>
                </mxCell>
                <mxCell id="ZmS3aK9wkaC02EFSY0Xw-26" value="" style="shape=tableRow;horizontal=0;startSize=0;swimlaneHead=0;swimlaneBody=0;fillColor=none;collapsible=0;dropTarget=0;points=[[0,0.5],[1,0.5]];portConstraint=eastwest;top=0;left=0;right=0;bottom=0;" parent="ZmS3aK9wkaC02EFSY0Xw-10" vertex="1">
                    <mxGeometry y="150" width="180" height="30" as="geometry"/>
                </mxCell>
                <mxCell id="ZmS3aK9wkaC02EFSY0Xw-27" value="NULL" style="shape=partialRectangle;connectable=0;fillColor=none;top=0;left=0;bottom=0;right=0;editable=1;overflow=hidden;whiteSpace=wrap;html=1;" parent="ZmS3aK9wkaC02EFSY0Xw-26" vertex="1">
                    <mxGeometry width="64.1500244140625" height="30" as="geometry">
                        <mxRectangle width="64.1500244140625" height="30" as="alternateBounds"/>
                    </mxGeometry>
                </mxCell>
                <mxCell id="ZmS3aK9wkaC02EFSY0Xw-28" value="birth_date" style="shape=partialRectangle;connectable=0;fillColor=none;top=0;left=0;bottom=0;right=0;align=left;spacingLeft=6;overflow=hidden;whiteSpace=wrap;html=1;" parent="ZmS3aK9wkaC02EFSY0Xw-26" vertex="1">
                    <mxGeometry x="64.1500244140625" width="115.8499755859375" height="30" as="geometry">
                        <mxRectangle width="115.8499755859375" height="30" as="alternateBounds"/>
                    </mxGeometry>
                </mxCell>
                <mxCell id="ZmS3aK9wkaC02EFSY0Xw-29" value="" style="shape=tableRow;horizontal=0;startSize=0;swimlaneHead=0;swimlaneBody=0;fillColor=none;collapsible=0;dropTarget=0;points=[[0,0.5],[1,0.5]];portConstraint=eastwest;top=0;left=0;right=0;bottom=0;" parent="ZmS3aK9wkaC02EFSY0Xw-10" vertex="1">
                    <mxGeometry y="180" width="180" height="30" as="geometry"/>
                </mxCell>
                <mxCell id="ZmS3aK9wkaC02EFSY0Xw-30" value="NULL" style="shape=partialRectangle;connectable=0;fillColor=none;top=0;left=0;bottom=0;right=0;editable=1;overflow=hidden;whiteSpace=wrap;html=1;" parent="ZmS3aK9wkaC02EFSY0Xw-29" vertex="1">
                    <mxGeometry width="64.1500244140625" height="30" as="geometry">
                        <mxRectangle width="64.1500244140625" height="30" as="alternateBounds"/>
                    </mxGeometry>
                </mxCell>
                <mxCell id="ZmS3aK9wkaC02EFSY0Xw-31" value="photo" style="shape=partialRectangle;connectable=0;fillColor=none;top=0;left=0;bottom=0;right=0;align=left;spacingLeft=6;overflow=hidden;whiteSpace=wrap;html=1;" parent="ZmS3aK9wkaC02EFSY0Xw-29" vertex="1">
                    <mxGeometry x="64.1500244140625" width="115.8499755859375" height="30" as="geometry">
                        <mxRectangle width="115.8499755859375" height="30" as="alternateBounds"/>
                    </mxGeometry>
                </mxCell>
                <mxCell id="ZmS3aK9wkaC02EFSY0Xw-32" value="" style="edgeStyle=entityRelationEdgeStyle;fontSize=12;html=1;endArrow=ERzeroToMany;startArrow=ERmandOne;rounded=0;entryX=0;entryY=0.5;entryDx=0;entryDy=0;exitX=1;exitY=0.5;exitDx=0;exitDy=0;" parent="1" source="buDMk4SMQGIEA38cGcn8-16" target="ZmS3aK9wkaC02EFSY0Xw-14" edge="1">
                    <mxGeometry width="100" height="100" relative="1" as="geometry">
                        <mxPoint x="-3584" y="524" as="sourcePoint"/>
                        <mxPoint x="-3345" y="415" as="targetPoint"/>
                    </mxGeometry>
                </mxCell>
                <mxCell id="ZmS3aK9wkaC02EFSY0Xw-36" value="Update: CASCADE&lt;div&gt;Delete: RESTRICT&lt;/div&gt;" style="text;html=1;align=center;verticalAlign=middle;resizable=0;points=[];autosize=1;strokeColor=none;fillColor=none;" parent="1" vertex="1">
                    <mxGeometry x="-3410.41" y="364" width="121" height="41" as="geometry"/>
                </mxCell>
                <mxCell id="ZmS3aK9wkaC02EFSY0Xw-38" value="membership_types" style="shape=table;startSize=30;container=1;collapsible=1;childLayout=tableLayout;fixedRows=1;rowLines=0;fontStyle=1;align=center;resizeLast=1;html=1;" parent="1" vertex="1">
                    <mxGeometry x="-3845" y="598" width="180.1788085937501" height="120" as="geometry"/>
                </mxCell>
                <mxCell id="ZmS3aK9wkaC02EFSY0Xw-39" value="" style="shape=tableRow;horizontal=0;startSize=0;swimlaneHead=0;swimlaneBody=0;fillColor=none;collapsible=0;dropTarget=0;points=[[0,0.5],[1,0.5]];portConstraint=eastwest;top=0;left=0;right=0;bottom=1;" parent="ZmS3aK9wkaC02EFSY0Xw-38" vertex="1">
                    <mxGeometry y="30" width="180.1788085937501" height="30" as="geometry"/>
                </mxCell>
                <mxCell id="ZmS3aK9wkaC02EFSY0Xw-40" value="PK" style="shape=partialRectangle;connectable=0;fillColor=none;top=0;left=0;bottom=0;right=0;fontStyle=1;overflow=hidden;whiteSpace=wrap;html=1;" parent="ZmS3aK9wkaC02EFSY0Xw-39" vertex="1">
                    <mxGeometry width="41.7366311961207" height="30" as="geometry">
                        <mxRectangle width="41.7366311961207" height="30" as="alternateBounds"/>
                    </mxGeometry>
                </mxCell>
                <mxCell id="ZmS3aK9wkaC02EFSY0Xw-41" value="id" style="shape=partialRectangle;connectable=0;fillColor=none;top=0;left=0;bottom=0;right=0;align=left;spacingLeft=6;fontStyle=5;overflow=hidden;whiteSpace=wrap;html=1;" parent="ZmS3aK9wkaC02EFSY0Xw-39" vertex="1">
                    <mxGeometry x="41.7366311961207" width="138.4421773976294" height="30" as="geometry">
                        <mxRectangle width="138.4421773976294" height="30" as="alternateBounds"/>
                    </mxGeometry>
                </mxCell>
                <mxCell id="ZmS3aK9wkaC02EFSY0Xw-42" value="" style="shape=tableRow;horizontal=0;startSize=0;swimlaneHead=0;swimlaneBody=0;fillColor=none;collapsible=0;dropTarget=0;points=[[0,0.5],[1,0.5]];portConstraint=eastwest;top=0;left=0;right=0;bottom=0;" parent="ZmS3aK9wkaC02EFSY0Xw-38" vertex="1">
                    <mxGeometry y="60" width="180.1788085937501" height="30" as="geometry"/>
                </mxCell>
                <mxCell id="ZmS3aK9wkaC02EFSY0Xw-43" value="FK" style="shape=partialRectangle;connectable=0;fillColor=none;top=0;left=0;bottom=0;right=0;editable=1;overflow=hidden;whiteSpace=wrap;html=1;" parent="ZmS3aK9wkaC02EFSY0Xw-42" vertex="1">
                    <mxGeometry width="41.7366311961207" height="30" as="geometry">
                        <mxRectangle width="41.7366311961207" height="30" as="alternateBounds"/>
                    </mxGeometry>
                </mxCell>
                <mxCell id="ZmS3aK9wkaC02EFSY0Xw-44" value="gym_id" style="shape=partialRectangle;connectable=0;fillColor=none;top=0;left=0;bottom=0;right=0;align=left;spacingLeft=6;overflow=hidden;whiteSpace=wrap;html=1;" parent="ZmS3aK9wkaC02EFSY0Xw-42" vertex="1">
                    <mxGeometry x="41.7366311961207" width="138.4421773976294" height="30" as="geometry">
                        <mxRectangle width="138.4421773976294" height="30" as="alternateBounds"/>
                    </mxGeometry>
                </mxCell>
                <mxCell id="ZmS3aK9wkaC02EFSY0Xw-45" value="" style="shape=tableRow;horizontal=0;startSize=0;swimlaneHead=0;swimlaneBody=0;fillColor=none;collapsible=0;dropTarget=0;points=[[0,0.5],[1,0.5]];portConstraint=eastwest;top=0;left=0;right=0;bottom=0;" parent="ZmS3aK9wkaC02EFSY0Xw-38" vertex="1">
                    <mxGeometry y="90" width="180.1788085937501" height="30" as="geometry"/>
                </mxCell>
                <mxCell id="ZmS3aK9wkaC02EFSY0Xw-46" value="" style="shape=partialRectangle;connectable=0;fillColor=none;top=0;left=0;bottom=0;right=0;editable=1;overflow=hidden;whiteSpace=wrap;html=1;" parent="ZmS3aK9wkaC02EFSY0Xw-45" vertex="1">
                    <mxGeometry width="41.7366311961207" height="30" as="geometry">
                        <mxRectangle width="41.7366311961207" height="30" as="alternateBounds"/>
                    </mxGeometry>
                </mxCell>
                <mxCell id="ZmS3aK9wkaC02EFSY0Xw-47" value="name" style="shape=partialRectangle;connectable=0;fillColor=none;top=0;left=0;bottom=0;right=0;align=left;spacingLeft=6;overflow=hidden;whiteSpace=wrap;html=1;" parent="ZmS3aK9wkaC02EFSY0Xw-45" vertex="1">
                    <mxGeometry x="41.7366311961207" width="138.4421773976294" height="30" as="geometry">
                        <mxRectangle width="138.4421773976294" height="30" as="alternateBounds"/>
                    </mxGeometry>
                </mxCell>
                <mxCell id="ZmS3aK9wkaC02EFSY0Xw-54" value="membership_periods" style="shape=table;startSize=30;container=1;collapsible=1;childLayout=tableLayout;fixedRows=1;rowLines=0;fontStyle=1;align=center;resizeLast=1;html=1;" parent="1" vertex="1">
                    <mxGeometry x="-3845" y="867" width="180.1788085937501" height="210" as="geometry"/>
                </mxCell>
                <mxCell id="ZmS3aK9wkaC02EFSY0Xw-55" value="" style="shape=tableRow;horizontal=0;startSize=0;swimlaneHead=0;swimlaneBody=0;fillColor=none;collapsible=0;dropTarget=0;points=[[0,0.5],[1,0.5]];portConstraint=eastwest;top=0;left=0;right=0;bottom=1;" parent="ZmS3aK9wkaC02EFSY0Xw-54" vertex="1">
                    <mxGeometry y="30" width="180.1788085937501" height="30" as="geometry"/>
                </mxCell>
                <mxCell id="ZmS3aK9wkaC02EFSY0Xw-56" value="PK" style="shape=partialRectangle;connectable=0;fillColor=none;top=0;left=0;bottom=0;right=0;fontStyle=1;overflow=hidden;whiteSpace=wrap;html=1;" parent="ZmS3aK9wkaC02EFSY0Xw-55" vertex="1">
                    <mxGeometry width="41.7366311961207" height="30" as="geometry">
                        <mxRectangle width="41.7366311961207" height="30" as="alternateBounds"/>
                    </mxGeometry>
                </mxCell>
                <mxCell id="ZmS3aK9wkaC02EFSY0Xw-57" value="id" style="shape=partialRectangle;connectable=0;fillColor=none;top=0;left=0;bottom=0;right=0;align=left;spacingLeft=6;fontStyle=5;overflow=hidden;whiteSpace=wrap;html=1;" parent="ZmS3aK9wkaC02EFSY0Xw-55" vertex="1">
                    <mxGeometry x="41.7366311961207" width="138.4421773976294" height="30" as="geometry">
                        <mxRectangle width="138.4421773976294" height="30" as="alternateBounds"/>
                    </mxGeometry>
                </mxCell>
                <mxCell id="ZmS3aK9wkaC02EFSY0Xw-58" value="" style="shape=tableRow;horizontal=0;startSize=0;swimlaneHead=0;swimlaneBody=0;fillColor=none;collapsible=0;dropTarget=0;points=[[0,0.5],[1,0.5]];portConstraint=eastwest;top=0;left=0;right=0;bottom=0;" parent="ZmS3aK9wkaC02EFSY0Xw-54" vertex="1">
                    <mxGeometry y="60" width="180.1788085937501" height="30" as="geometry"/>
                </mxCell>
                <mxCell id="ZmS3aK9wkaC02EFSY0Xw-59" value="FK" style="shape=partialRectangle;connectable=0;fillColor=none;top=0;left=0;bottom=0;right=0;editable=1;overflow=hidden;whiteSpace=wrap;html=1;" parent="ZmS3aK9wkaC02EFSY0Xw-58" vertex="1">
                    <mxGeometry width="41.7366311961207" height="30" as="geometry">
                        <mxRectangle width="41.7366311961207" height="30" as="alternateBounds"/>
                    </mxGeometry>
                </mxCell>
                <mxCell id="ZmS3aK9wkaC02EFSY0Xw-60" value="gym_id" style="shape=partialRectangle;connectable=0;fillColor=none;top=0;left=0;bottom=0;right=0;align=left;spacingLeft=6;overflow=hidden;whiteSpace=wrap;html=1;" parent="ZmS3aK9wkaC02EFSY0Xw-58" vertex="1">
                    <mxGeometry x="41.7366311961207" width="138.4421773976294" height="30" as="geometry">
                        <mxRectangle width="138.4421773976294" height="30" as="alternateBounds"/>
                    </mxGeometry>
                </mxCell>
                <mxCell id="ZmS3aK9wkaC02EFSY0Xw-61" value="" style="shape=tableRow;horizontal=0;startSize=0;swimlaneHead=0;swimlaneBody=0;fillColor=none;collapsible=0;dropTarget=0;points=[[0,0.5],[1,0.5]];portConstraint=eastwest;top=0;left=0;right=0;bottom=0;" parent="ZmS3aK9wkaC02EFSY0Xw-54" vertex="1">
                    <mxGeometry y="90" width="180.1788085937501" height="30" as="geometry"/>
                </mxCell>
                <mxCell id="ZmS3aK9wkaC02EFSY0Xw-62" value="" style="shape=partialRectangle;connectable=0;fillColor=none;top=0;left=0;bottom=0;right=0;editable=1;overflow=hidden;whiteSpace=wrap;html=1;" parent="ZmS3aK9wkaC02EFSY0Xw-61" vertex="1">
                    <mxGeometry width="41.7366311961207" height="30" as="geometry">
                        <mxRectangle width="41.7366311961207" height="30" as="alternateBounds"/>
                    </mxGeometry>
                </mxCell>
                <mxCell id="ZmS3aK9wkaC02EFSY0Xw-63" value="name" style="shape=partialRectangle;connectable=0;fillColor=none;top=0;left=0;bottom=0;right=0;align=left;spacingLeft=6;overflow=hidden;whiteSpace=wrap;html=1;" parent="ZmS3aK9wkaC02EFSY0Xw-61" vertex="1">
                    <mxGeometry x="41.7366311961207" width="138.4421773976294" height="30" as="geometry">
                        <mxRectangle width="138.4421773976294" height="30" as="alternateBounds"/>
                    </mxGeometry>
                </mxCell>
                <mxCell id="ZmS3aK9wkaC02EFSY0Xw-64" value="" style="shape=tableRow;horizontal=0;startSize=0;swimlaneHead=0;swimlaneBody=0;fillColor=none;collapsible=0;dropTarget=0;points=[[0,0.5],[1,0.5]];portConstraint=eastwest;top=0;left=0;right=0;bottom=0;" parent="ZmS3aK9wkaC02EFSY0Xw-54" vertex="1">
                    <mxGeometry y="120" width="180.1788085937501" height="30" as="geometry"/>
                </mxCell>
                <mxCell id="ZmS3aK9wkaC02EFSY0Xw-65" value="" style="shape=partialRectangle;connectable=0;fillColor=none;top=0;left=0;bottom=0;right=0;editable=1;overflow=hidden;whiteSpace=wrap;html=1;" parent="ZmS3aK9wkaC02EFSY0Xw-64" vertex="1">
                    <mxGeometry width="41.7366311961207" height="30" as="geometry">
                        <mxRectangle width="41.7366311961207" height="30" as="alternateBounds"/>
                    </mxGeometry>
                </mxCell>
                <mxCell id="ZmS3aK9wkaC02EFSY0Xw-66" value="duration_value" style="shape=partialRectangle;connectable=0;fillColor=none;top=0;left=0;bottom=0;right=0;align=left;spacingLeft=6;overflow=hidden;whiteSpace=wrap;html=1;" parent="ZmS3aK9wkaC02EFSY0Xw-64" vertex="1">
                    <mxGeometry x="41.7366311961207" width="138.4421773976294" height="30" as="geometry">
                        <mxRectangle width="138.4421773976294" height="30" as="alternateBounds"/>
                    </mxGeometry>
                </mxCell>
                <mxCell id="ZmS3aK9wkaC02EFSY0Xw-67" value="" style="shape=tableRow;horizontal=0;startSize=0;swimlaneHead=0;swimlaneBody=0;fillColor=none;collapsible=0;dropTarget=0;points=[[0,0.5],[1,0.5]];portConstraint=eastwest;top=0;left=0;right=0;bottom=0;" parent="ZmS3aK9wkaC02EFSY0Xw-54" vertex="1">
                    <mxGeometry y="150" width="180.1788085937501" height="30" as="geometry"/>
                </mxCell>
                <mxCell id="ZmS3aK9wkaC02EFSY0Xw-68" value="" style="shape=partialRectangle;connectable=0;fillColor=none;top=0;left=0;bottom=0;right=0;editable=1;overflow=hidden;whiteSpace=wrap;html=1;" parent="ZmS3aK9wkaC02EFSY0Xw-67" vertex="1">
                    <mxGeometry width="41.7366311961207" height="30" as="geometry">
                        <mxRectangle width="41.7366311961207" height="30" as="alternateBounds"/>
                    </mxGeometry>
                </mxCell>
                <mxCell id="ZmS3aK9wkaC02EFSY0Xw-69" value="duration_unit" style="shape=partialRectangle;connectable=0;fillColor=none;top=0;left=0;bottom=0;right=0;align=left;spacingLeft=6;overflow=hidden;whiteSpace=wrap;html=1;" parent="ZmS3aK9wkaC02EFSY0Xw-67" vertex="1">
                    <mxGeometry x="41.7366311961207" width="138.4421773976294" height="30" as="geometry">
                        <mxRectangle width="138.4421773976294" height="30" as="alternateBounds"/>
                    </mxGeometry>
                </mxCell>
                <mxCell id="ZmS3aK9wkaC02EFSY0Xw-70" value="" style="shape=tableRow;horizontal=0;startSize=0;swimlaneHead=0;swimlaneBody=0;fillColor=none;collapsible=0;dropTarget=0;points=[[0,0.5],[1,0.5]];portConstraint=eastwest;top=0;left=0;right=0;bottom=0;" parent="ZmS3aK9wkaC02EFSY0Xw-54" vertex="1">
                    <mxGeometry y="180" width="180.1788085937501" height="30" as="geometry"/>
                </mxCell>
                <mxCell id="ZmS3aK9wkaC02EFSY0Xw-71" value="" style="shape=partialRectangle;connectable=0;fillColor=none;top=0;left=0;bottom=0;right=0;editable=1;overflow=hidden;whiteSpace=wrap;html=1;" parent="ZmS3aK9wkaC02EFSY0Xw-70" vertex="1">
                    <mxGeometry width="41.7366311961207" height="30" as="geometry">
                        <mxRectangle width="41.7366311961207" height="30" as="alternateBounds"/>
                    </mxGeometry>
                </mxCell>
                <mxCell id="ZmS3aK9wkaC02EFSY0Xw-72" value="price" style="shape=partialRectangle;connectable=0;fillColor=none;top=0;left=0;bottom=0;right=0;align=left;spacingLeft=6;overflow=hidden;whiteSpace=wrap;html=1;" parent="ZmS3aK9wkaC02EFSY0Xw-70" vertex="1">
                    <mxGeometry x="41.7366311961207" width="138.4421773976294" height="30" as="geometry">
                        <mxRectangle width="138.4421773976294" height="30" as="alternateBounds"/>
                    </mxGeometry>
                </mxCell>
                <mxCell id="ZmS3aK9wkaC02EFSY0Xw-73" value="" style="fontSize=12;html=1;endArrow=ERzeroToMany;startArrow=ERmandOne;rounded=0;entryX=0.5;entryY=0;entryDx=0;entryDy=0;exitX=0.5;exitY=1;exitDx=0;exitDy=0;" parent="1" source="ZmS3aK9wkaC02EFSY0Xw-38" target="ZmS3aK9wkaC02EFSY0Xw-54" edge="1">
                    <mxGeometry width="100" height="100" relative="1" as="geometry">
                        <mxPoint x="-3753.18" y="778" as="sourcePoint"/>
                        <mxPoint x="-3546.18" y="760" as="targetPoint"/>
                    </mxGeometry>
                </mxCell>
                <mxCell id="mqhOs3bqcrHOX_XixSsW-1" value="memberships" style="shape=table;startSize=30;container=1;collapsible=1;childLayout=tableLayout;fixedRows=1;rowLines=0;fontStyle=1;align=center;resizeLast=1;html=1;" parent="1" vertex="1">
                    <mxGeometry x="-3458" y="673" width="188.26924954927904" height="300" as="geometry"/>
                </mxCell>
                <mxCell id="mqhOs3bqcrHOX_XixSsW-2" value="" style="shape=tableRow;horizontal=0;startSize=0;swimlaneHead=0;swimlaneBody=0;fillColor=none;collapsible=0;dropTarget=0;points=[[0,0.5],[1,0.5]];portConstraint=eastwest;top=0;left=0;right=0;bottom=1;" parent="mqhOs3bqcrHOX_XixSsW-1" vertex="1">
                    <mxGeometry y="30" width="188.26924954927904" height="30" as="geometry"/>
                </mxCell>
                <mxCell id="mqhOs3bqcrHOX_XixSsW-3" value="PK" style="shape=partialRectangle;connectable=0;fillColor=none;top=0;left=0;bottom=0;right=0;fontStyle=1;overflow=hidden;whiteSpace=wrap;html=1;" parent="mqhOs3bqcrHOX_XixSsW-2" vertex="1">
                    <mxGeometry width="41.7366311961207" height="30" as="geometry">
                        <mxRectangle width="41.7366311961207" height="30" as="alternateBounds"/>
                    </mxGeometry>
                </mxCell>
                <mxCell id="mqhOs3bqcrHOX_XixSsW-4" value="id" style="shape=partialRectangle;connectable=0;fillColor=none;top=0;left=0;bottom=0;right=0;align=left;spacingLeft=6;fontStyle=5;overflow=hidden;whiteSpace=wrap;html=1;" parent="mqhOs3bqcrHOX_XixSsW-2" vertex="1">
                    <mxGeometry x="41.7366311961207" width="146.53261835315834" height="30" as="geometry">
                        <mxRectangle width="146.53261835315834" height="30" as="alternateBounds"/>
                    </mxGeometry>
                </mxCell>
                <mxCell id="mqhOs3bqcrHOX_XixSsW-5" value="" style="shape=tableRow;horizontal=0;startSize=0;swimlaneHead=0;swimlaneBody=0;fillColor=none;collapsible=0;dropTarget=0;points=[[0,0.5],[1,0.5]];portConstraint=eastwest;top=0;left=0;right=0;bottom=0;" parent="mqhOs3bqcrHOX_XixSsW-1" vertex="1">
                    <mxGeometry y="60" width="188.26924954927904" height="30" as="geometry"/>
                </mxCell>
                <mxCell id="mqhOs3bqcrHOX_XixSsW-6" value="FK1" style="shape=partialRectangle;connectable=0;fillColor=none;top=0;left=0;bottom=0;right=0;editable=1;overflow=hidden;whiteSpace=wrap;html=1;" parent="mqhOs3bqcrHOX_XixSsW-5" vertex="1">
                    <mxGeometry width="41.7366311961207" height="30" as="geometry">
                        <mxRectangle width="41.7366311961207" height="30" as="alternateBounds"/>
                    </mxGeometry>
                </mxCell>
                <mxCell id="mqhOs3bqcrHOX_XixSsW-7" value="gym_id" style="shape=partialRectangle;connectable=0;fillColor=none;top=0;left=0;bottom=0;right=0;align=left;spacingLeft=6;overflow=hidden;whiteSpace=wrap;html=1;" parent="mqhOs3bqcrHOX_XixSsW-5" vertex="1">
                    <mxGeometry x="41.7366311961207" width="146.53261835315834" height="30" as="geometry">
                        <mxRectangle width="146.53261835315834" height="30" as="alternateBounds"/>
                    </mxGeometry>
                </mxCell>
                <mxCell id="Kw_Bj35O--UsvmyiCs1L-13" value="" style="shape=tableRow;horizontal=0;startSize=0;swimlaneHead=0;swimlaneBody=0;fillColor=none;collapsible=0;dropTarget=0;points=[[0,0.5],[1,0.5]];portConstraint=eastwest;top=0;left=0;right=0;bottom=0;" parent="mqhOs3bqcrHOX_XixSsW-1" vertex="1">
                    <mxGeometry y="90" width="188.26924954927904" height="30" as="geometry"/>
                </mxCell>
                <mxCell id="Kw_Bj35O--UsvmyiCs1L-14" value="FK2" style="shape=partialRectangle;connectable=0;fillColor=none;top=0;left=0;bottom=0;right=0;editable=1;overflow=hidden;whiteSpace=wrap;html=1;" parent="Kw_Bj35O--UsvmyiCs1L-13" vertex="1">
                    <mxGeometry width="41.7366311961207" height="30" as="geometry">
                        <mxRectangle width="41.7366311961207" height="30" as="alternateBounds"/>
                    </mxGeometry>
                </mxCell>
                <mxCell id="Kw_Bj35O--UsvmyiCs1L-15" value="member_id" style="shape=partialRectangle;connectable=0;fillColor=none;top=0;left=0;bottom=0;right=0;align=left;spacingLeft=6;overflow=hidden;whiteSpace=wrap;html=1;" parent="Kw_Bj35O--UsvmyiCs1L-13" vertex="1">
                    <mxGeometry x="41.7366311961207" width="146.53261835315834" height="30" as="geometry">
                        <mxRectangle width="146.53261835315834" height="30" as="alternateBounds"/>
                    </mxGeometry>
                </mxCell>
                <mxCell id="Kw_Bj35O--UsvmyiCs1L-3" value="" style="shape=tableRow;horizontal=0;startSize=0;swimlaneHead=0;swimlaneBody=0;fillColor=none;collapsible=0;dropTarget=0;points=[[0,0.5],[1,0.5]];portConstraint=eastwest;top=0;left=0;right=0;bottom=0;" parent="mqhOs3bqcrHOX_XixSsW-1" vertex="1">
                    <mxGeometry y="120" width="188.26924954927904" height="30" as="geometry"/>
                </mxCell>
                <mxCell id="Kw_Bj35O--UsvmyiCs1L-4" value="FK3" style="shape=partialRectangle;connectable=0;fillColor=none;top=0;left=0;bottom=0;right=0;editable=1;overflow=hidden;whiteSpace=wrap;html=1;" parent="Kw_Bj35O--UsvmyiCs1L-3" vertex="1">
                    <mxGeometry width="41.7366311961207" height="30" as="geometry">
                        <mxRectangle width="41.7366311961207" height="30" as="alternateBounds"/>
                    </mxGeometry>
                </mxCell>
                <mxCell id="Kw_Bj35O--UsvmyiCs1L-5" value="membership_type_id" style="shape=partialRectangle;connectable=0;fillColor=none;top=0;left=0;bottom=0;right=0;align=left;spacingLeft=6;overflow=hidden;whiteSpace=wrap;html=1;" parent="Kw_Bj35O--UsvmyiCs1L-3" vertex="1">
                    <mxGeometry x="41.7366311961207" width="146.53261835315834" height="30" as="geometry">
                        <mxRectangle width="146.53261835315834" height="30" as="alternateBounds"/>
                    </mxGeometry>
                </mxCell>
                <mxCell id="Kw_Bj35O--UsvmyiCs1L-6" value="" style="shape=tableRow;horizontal=0;startSize=0;swimlaneHead=0;swimlaneBody=0;fillColor=none;collapsible=0;dropTarget=0;points=[[0,0.5],[1,0.5]];portConstraint=eastwest;top=0;left=0;right=0;bottom=0;" parent="mqhOs3bqcrHOX_XixSsW-1" vertex="1">
                    <mxGeometry y="150" width="188.26924954927904" height="30" as="geometry"/>
                </mxCell>
                <mxCell id="Kw_Bj35O--UsvmyiCs1L-7" value="FK4" style="shape=partialRectangle;connectable=0;fillColor=none;top=0;left=0;bottom=0;right=0;editable=1;overflow=hidden;whiteSpace=wrap;html=1;" parent="Kw_Bj35O--UsvmyiCs1L-6" vertex="1">
                    <mxGeometry width="41.7366311961207" height="30" as="geometry">
                        <mxRectangle width="41.7366311961207" height="30" as="alternateBounds"/>
                    </mxGeometry>
                </mxCell>
                <mxCell id="Kw_Bj35O--UsvmyiCs1L-8" value="membership_period_id" style="shape=partialRectangle;connectable=0;fillColor=none;top=0;left=0;bottom=0;right=0;align=left;spacingLeft=6;overflow=hidden;whiteSpace=wrap;html=1;" parent="Kw_Bj35O--UsvmyiCs1L-6" vertex="1">
                    <mxGeometry x="41.7366311961207" width="146.53261835315834" height="30" as="geometry">
                        <mxRectangle width="146.53261835315834" height="30" as="alternateBounds"/>
                    </mxGeometry>
                </mxCell>
                <mxCell id="mqhOs3bqcrHOX_XixSsW-8" value="" style="shape=tableRow;horizontal=0;startSize=0;swimlaneHead=0;swimlaneBody=0;fillColor=none;collapsible=0;dropTarget=0;points=[[0,0.5],[1,0.5]];portConstraint=eastwest;top=0;left=0;right=0;bottom=0;" parent="mqhOs3bqcrHOX_XixSsW-1" vertex="1">
                    <mxGeometry y="180" width="188.26924954927904" height="30" as="geometry"/>
                </mxCell>
                <mxCell id="mqhOs3bqcrHOX_XixSsW-9" value="" style="shape=partialRectangle;connectable=0;fillColor=none;top=0;left=0;bottom=0;right=0;editable=1;overflow=hidden;whiteSpace=wrap;html=1;" parent="mqhOs3bqcrHOX_XixSsW-8" vertex="1">
                    <mxGeometry width="41.7366311961207" height="30" as="geometry">
                        <mxRectangle width="41.7366311961207" height="30" as="alternateBounds"/>
                    </mxGeometry>
                </mxCell>
                <mxCell id="mqhOs3bqcrHOX_XixSsW-10" value="price" style="shape=partialRectangle;connectable=0;fillColor=none;top=0;left=0;bottom=0;right=0;align=left;spacingLeft=6;overflow=hidden;whiteSpace=wrap;html=1;" parent="mqhOs3bqcrHOX_XixSsW-8" vertex="1">
                    <mxGeometry x="41.7366311961207" width="146.53261835315834" height="30" as="geometry">
                        <mxRectangle width="146.53261835315834" height="30" as="alternateBounds"/>
                    </mxGeometry>
                </mxCell>
                <mxCell id="mqhOs3bqcrHOX_XixSsW-11" value="" style="shape=tableRow;horizontal=0;startSize=0;swimlaneHead=0;swimlaneBody=0;fillColor=none;collapsible=0;dropTarget=0;points=[[0,0.5],[1,0.5]];portConstraint=eastwest;top=0;left=0;right=0;bottom=0;" parent="mqhOs3bqcrHOX_XixSsW-1" vertex="1">
                    <mxGeometry y="210" width="188.26924954927904" height="30" as="geometry"/>
                </mxCell>
                <mxCell id="mqhOs3bqcrHOX_XixSsW-12" value="" style="shape=partialRectangle;connectable=0;fillColor=none;top=0;left=0;bottom=0;right=0;editable=1;overflow=hidden;whiteSpace=wrap;html=1;" parent="mqhOs3bqcrHOX_XixSsW-11" vertex="1">
                    <mxGeometry width="41.7366311961207" height="30" as="geometry">
                        <mxRectangle width="41.7366311961207" height="30" as="alternateBounds"/>
                    </mxGeometry>
                </mxCell>
                <mxCell id="mqhOs3bqcrHOX_XixSsW-13" value="start_date" style="shape=partialRectangle;connectable=0;fillColor=none;top=0;left=0;bottom=0;right=0;align=left;spacingLeft=6;overflow=hidden;whiteSpace=wrap;html=1;" parent="mqhOs3bqcrHOX_XixSsW-11" vertex="1">
                    <mxGeometry x="41.7366311961207" width="146.53261835315834" height="30" as="geometry">
                        <mxRectangle width="146.53261835315834" height="30" as="alternateBounds"/>
                    </mxGeometry>
                </mxCell>
                <mxCell id="mqhOs3bqcrHOX_XixSsW-14" value="" style="shape=tableRow;horizontal=0;startSize=0;swimlaneHead=0;swimlaneBody=0;fillColor=none;collapsible=0;dropTarget=0;points=[[0,0.5],[1,0.5]];portConstraint=eastwest;top=0;left=0;right=0;bottom=0;" parent="mqhOs3bqcrHOX_XixSsW-1" vertex="1">
                    <mxGeometry y="240" width="188.26924954927904" height="30" as="geometry"/>
                </mxCell>
                <mxCell id="mqhOs3bqcrHOX_XixSsW-15" value="" style="shape=partialRectangle;connectable=0;fillColor=none;top=0;left=0;bottom=0;right=0;editable=1;overflow=hidden;whiteSpace=wrap;html=1;" parent="mqhOs3bqcrHOX_XixSsW-14" vertex="1">
                    <mxGeometry width="41.7366311961207" height="30" as="geometry">
                        <mxRectangle width="41.7366311961207" height="30" as="alternateBounds"/>
                    </mxGeometry>
                </mxCell>
                <mxCell id="mqhOs3bqcrHOX_XixSsW-16" value="end_date" style="shape=partialRectangle;connectable=0;fillColor=none;top=0;left=0;bottom=0;right=0;align=left;spacingLeft=6;overflow=hidden;whiteSpace=wrap;html=1;" parent="mqhOs3bqcrHOX_XixSsW-14" vertex="1">
                    <mxGeometry x="41.7366311961207" width="146.53261835315834" height="30" as="geometry">
                        <mxRectangle width="146.53261835315834" height="30" as="alternateBounds"/>
                    </mxGeometry>
                </mxCell>
                <mxCell id="mqhOs3bqcrHOX_XixSsW-17" value="" style="shape=tableRow;horizontal=0;startSize=0;swimlaneHead=0;swimlaneBody=0;fillColor=none;collapsible=0;dropTarget=0;points=[[0,0.5],[1,0.5]];portConstraint=eastwest;top=0;left=0;right=0;bottom=0;" parent="mqhOs3bqcrHOX_XixSsW-1" vertex="1">
                    <mxGeometry y="270" width="188.26924954927904" height="30" as="geometry"/>
                </mxCell>
                <mxCell id="mqhOs3bqcrHOX_XixSsW-18" value="" style="shape=partialRectangle;connectable=0;fillColor=none;top=0;left=0;bottom=0;right=0;editable=1;overflow=hidden;whiteSpace=wrap;html=1;" parent="mqhOs3bqcrHOX_XixSsW-17" vertex="1">
                    <mxGeometry width="41.7366311961207" height="30" as="geometry">
                        <mxRectangle width="41.7366311961207" height="30" as="alternateBounds"/>
                    </mxGeometry>
                </mxCell>
                <mxCell id="mqhOs3bqcrHOX_XixSsW-19" value="status" style="shape=partialRectangle;connectable=0;fillColor=none;top=0;left=0;bottom=0;right=0;align=left;spacingLeft=6;overflow=hidden;whiteSpace=wrap;html=1;" parent="mqhOs3bqcrHOX_XixSsW-17" vertex="1">
                    <mxGeometry x="41.7366311961207" width="146.53261835315834" height="30" as="geometry">
                        <mxRectangle width="146.53261835315834" height="30" as="alternateBounds"/>
                    </mxGeometry>
                </mxCell>
                <mxCell id="Kw_Bj35O--UsvmyiCs1L-1" value="" style="edgeStyle=elbowEdgeStyle;fontSize=12;html=1;endArrow=ERoneToMany;startArrow=ERmandOne;rounded=0;entryX=1;entryY=0.5;entryDx=0;entryDy=0;exitX=0.268;exitY=1.002;exitDx=0;exitDy=0;exitPerimeter=0;" parent="1" source="ZmS3aK9wkaC02EFSY0Xw-7" target="ZmS3aK9wkaC02EFSY0Xw-42" edge="1">
                    <mxGeometry width="100" height="100" relative="1" as="geometry">
                        <mxPoint x="-3542" y="516" as="sourcePoint"/>
                        <mxPoint x="-3448" y="591" as="targetPoint"/>
                        <Array as="points">
                            <mxPoint x="-3586" y="615"/>
                        </Array>
                    </mxGeometry>
                </mxCell>
                <mxCell id="Kw_Bj35O--UsvmyiCs1L-10" value="" style="edgeStyle=orthogonalEdgeStyle;fontSize=12;html=1;endArrow=ERzeroToMany;startArrow=ERmandOne;rounded=0;entryX=0;entryY=0.5;entryDx=0;entryDy=0;exitX=0.75;exitY=1.003;exitDx=0;exitDy=0;exitPerimeter=0;" parent="1" source="ZmS3aK9wkaC02EFSY0Xw-7" target="mqhOs3bqcrHOX_XixSsW-5" edge="1">
                    <mxGeometry width="100" height="100" relative="1" as="geometry">
                        <mxPoint x="-3496" y="512" as="sourcePoint"/>
                        <mxPoint x="-3271.87" y="517.5" as="targetPoint"/>
                    </mxGeometry>
                </mxCell>
                <mxCell id="Kw_Bj35O--UsvmyiCs1L-11" value="" style="edgeStyle=orthogonalEdgeStyle;fontSize=12;html=1;endArrow=ERzeroToMany;startArrow=ERmandOne;rounded=0;entryX=0;entryY=0.5;entryDx=0;entryDy=0;exitX=0.764;exitY=0.996;exitDx=0;exitDy=0;exitPerimeter=0;" parent="1" source="ZmS3aK9wkaC02EFSY0Xw-45" target="Kw_Bj35O--UsvmyiCs1L-3" edge="1">
                    <mxGeometry width="100" height="100" relative="1" as="geometry">
                        <mxPoint x="-3505" y="723" as="sourcePoint"/>
                        <mxPoint x="-3473" y="985" as="targetPoint"/>
                    </mxGeometry>
                </mxCell>
                <mxCell id="Kw_Bj35O--UsvmyiCs1L-12" value="" style="edgeStyle=entityRelationEdgeStyle;fontSize=12;html=1;endArrow=ERzeroToMany;startArrow=ERmandOne;rounded=0;entryX=0;entryY=0.5;entryDx=0;entryDy=0;exitX=1;exitY=0.5;exitDx=0;exitDy=0;" parent="1" source="ZmS3aK9wkaC02EFSY0Xw-55" target="Kw_Bj35O--UsvmyiCs1L-6" edge="1">
                    <mxGeometry width="100" height="100" relative="1" as="geometry">
                        <mxPoint x="-3573" y="885" as="sourcePoint"/>
                        <mxPoint x="-3325" y="841" as="targetPoint"/>
                    </mxGeometry>
                </mxCell>
                <mxCell id="Kw_Bj35O--UsvmyiCs1L-16" value="" style="edgeStyle=orthogonalEdgeStyle;fontSize=12;html=1;endArrow=ERzeroToMany;startArrow=ERmandOne;rounded=0;entryX=1;entryY=0.5;entryDx=0;entryDy=0;exitX=0.561;exitY=1.014;exitDx=0;exitDy=0;exitPerimeter=0;" parent="1" source="ZmS3aK9wkaC02EFSY0Xw-29" target="Kw_Bj35O--UsvmyiCs1L-13" edge="1">
                    <mxGeometry width="100" height="100" relative="1" as="geometry">
                        <mxPoint x="-2909" y="636" as="sourcePoint"/>
                        <mxPoint x="-2655" y="893" as="targetPoint"/>
                    </mxGeometry>
                </mxCell>
                <mxCell id="Kw_Bj35O--UsvmyiCs1L-17" value="Update: CASCADE&lt;div&gt;Delete: RESTRICT&lt;/div&gt;" style="text;html=1;align=center;verticalAlign=middle;resizable=0;points=[];autosize=1;strokeColor=none;fillColor=none;" parent="1" vertex="1">
                    <mxGeometry x="-3709" y="543" width="121" height="41" as="geometry"/>
                </mxCell>
                <mxCell id="Kw_Bj35O--UsvmyiCs1L-18" value="Update: CASCADE&lt;div&gt;Delete: RESTRICT&lt;/div&gt;" style="text;html=1;align=center;verticalAlign=middle;resizable=0;points=[];autosize=1;strokeColor=none;fillColor=none;" parent="1" vertex="1">
                    <mxGeometry x="-3646" y="766" width="121" height="41" as="geometry"/>
                </mxCell>
                <mxCell id="Kw_Bj35O--UsvmyiCs1L-19" value="Update: CASCADE&lt;div&gt;Delete: RESTRICT&lt;/div&gt;" style="text;html=1;align=center;verticalAlign=middle;resizable=0;points=[];autosize=1;strokeColor=none;fillColor=none;" parent="1" vertex="1">
                    <mxGeometry x="-3598" y="890" width="121" height="41" as="geometry"/>
                </mxCell>
                <mxCell id="Kw_Bj35O--UsvmyiCs1L-20" value="Update: CASCADE&lt;div&gt;Delete: RESTRICT&lt;/div&gt;" style="text;html=1;align=center;verticalAlign=middle;resizable=0;points=[];autosize=1;strokeColor=none;fillColor=none;" parent="1" vertex="1">
                    <mxGeometry x="-3877" y="766" width="121" height="41" as="geometry"/>
                </mxCell>
                <mxCell id="Kw_Bj35O--UsvmyiCs1L-21" value="Update: CASCADE&lt;div&gt;Delete: RESTRICT&lt;/div&gt;" style="text;html=1;align=center;verticalAlign=middle;resizable=0;points=[];autosize=1;strokeColor=none;fillColor=none;" parent="1" vertex="1">
                    <mxGeometry x="-3498" y="567" width="121" height="41" as="geometry"/>
                </mxCell>
                <mxCell id="Kw_Bj35O--UsvmyiCs1L-22" value="Update: CASCADE&lt;div&gt;Delete: RESTRICT&lt;/div&gt;" style="text;html=1;align=center;verticalAlign=middle;resizable=0;points=[];autosize=1;strokeColor=none;fillColor=none;" parent="1" vertex="1">
                    <mxGeometry x="-3272" y="598" width="121" height="41" as="geometry"/>
                </mxCell>
            </root>
        </mxGraphModel>
    </diagram>
</mxfile>
